<mxfile host="app.diagrams.net" modified="2021-05-28T06:23:32.239Z" agent="5.0 (Macintosh; Intel Mac OS X 10_15_6) AppleWebKit/605.1.15 (KHTML, like Gecko) Version/14.0.3 Safari/605.1.15" etag="WIO4uiAkQodNkgbXmcPf" version="14.7.2" type="github">
  <diagram id="vDshDsp_5JG6sJXskKvE" name="Page-1">
    <mxGraphModel dx="1039" dy="824" grid="1" gridSize="10" guides="1" tooltips="1" connect="1" arrows="1" fold="1" page="1" pageScale="1" pageWidth="827" pageHeight="1169" math="0" shadow="0">
      <root>
        <mxCell id="0" />
        <mxCell id="1" parent="0" />
        <mxCell id="xqe9_rLlM9wzdQx_fb-O-1" value="" style="rounded=1;whiteSpace=wrap;html=1;" vertex="1" parent="1">
          <mxGeometry x="60" y="60" width="200" height="220" as="geometry" />
        </mxCell>
        <mxCell id="xqe9_rLlM9wzdQx_fb-O-2" value="" style="shape=cylinder3;whiteSpace=wrap;html=1;boundedLbl=1;backgroundOutline=1;size=15;" vertex="1" parent="1">
          <mxGeometry x="70" y="70" width="60" height="60" as="geometry" />
        </mxCell>
        <mxCell id="xqe9_rLlM9wzdQx_fb-O-4" value="" style="shape=cylinder3;whiteSpace=wrap;html=1;boundedLbl=1;backgroundOutline=1;size=15;" vertex="1" parent="1">
          <mxGeometry x="140" y="70" width="60" height="60" as="geometry" />
        </mxCell>
        <mxCell id="xqe9_rLlM9wzdQx_fb-O-5" value="" style="ellipse;whiteSpace=wrap;html=1;aspect=fixed;" vertex="1" parent="1">
          <mxGeometry x="140" y="210" width="60" height="60" as="geometry" />
        </mxCell>
        <mxCell id="xqe9_rLlM9wzdQx_fb-O-7" value="" style="ellipse;whiteSpace=wrap;html=1;aspect=fixed;" vertex="1" parent="1">
          <mxGeometry x="70" y="210" width="60" height="60" as="geometry" />
        </mxCell>
      </root>
    </mxGraphModel>
  </diagram>
</mxfile>
